<?xml version="1.0" encoding="UTF-8" standalone="no"?>
<svg
   viewBox="0 0 18 18"
   version="1.1"
   id="svg1"
   sodipodi:docname="delete.svg"
   width="18"
   height="18"
   inkscape:version="1.3.1 (9b9bdc1480, 2023-11-25, custom)"
   xmlns:inkscape="http://www.inkscape.org/namespaces/inkscape"
   xmlns:sodipodi="http://sodipodi.sourceforge.net/DTD/sodipodi-0.dtd"
   xmlns="http://www.w3.org/2000/svg"
   xmlns:svg="http://www.w3.org/2000/svg"
   stroke="black"
   fill="black"
   >
  <defs
     id="defs1" />
  <sodipodi:namedview
     id="namedview1"
     pagecolor="#ffffff"
     bordercolor="#000000"
     borderopacity="0.25"
     inkscape:showpageshadow="2"
     inkscape:pageopacity="0.0"
     inkscape:pagecheckerboard="0"
     inkscape:deskcolor="#d1d1d1"
     inkscape:zoom="33.125"
     inkscape:cx="9.0113208"
     inkscape:cy="9.0113208"
     inkscape:window-width="1920"
     inkscape:window-height="995"
     inkscape:window-x="0"
     inkscape:window-y="0"
     inkscape:window-maximized="1"
     inkscape:current-layer="svg1" />
  <path
     d="M 16,0 H 2 A 2,2 0 0 0 0,2 v 14 a 2,2 0 0 0 2,2 h 14 a 2,2 0 0 0 2,-2 V 2 A 2,2 0 0 0 16,0 m 0,16 H 2 V 2 H 16 V 16 M 14,5.4 10.4,9 14,12.6 12.6,14 9,10.4 5.4,14 4,12.6 7.6,9 4,5.4 5.4,4 9,7.6 12.6,4 Z"
     id="path1" />
</svg>
