<?xml version="1.0" encoding="UTF-8" standalone="no"?>
<svg
   viewBox="0 0 20.203073 15.076868"
   fill="#0000ff"
   version="1.1"
   id="svg1"
   sodipodi:docname="folder-outline.svg"
   inkscape:version="1.3.1 (9b9bdc1480, 2023-11-25, custom)"
   inkscape:export-filename="folder-outline.svg"
   inkscape:export-xdpi="400"
   inkscape:export-ydpi="400"
   width="20.203074"
   height="15.076868"
   xmlns:inkscape="http://www.inkscape.org/namespaces/inkscape"
   xmlns:sodipodi="http://sodipodi.sourceforge.net/DTD/sodipodi-0.dtd"
   xmlns="http://www.w3.org/2000/svg"
   xmlns:svg="http://www.w3.org/2000/svg">
  <defs
     id="defs1">
    <linearGradient
       id="swatch12">
      <stop
         style="stop-color:#000000;stop-opacity:1;"
         offset="0"
         id="stop12" />
    </linearGradient>
  </defs>
  <sodipodi:namedview
     id="namedview1"
     pagecolor="#ffffff"
     bordercolor="#000000"
     borderopacity="0.25"
     inkscape:showpageshadow="2"
     inkscape:pageopacity="0.0"
     inkscape:pagecheckerboard="0"
     inkscape:deskcolor="#d1d1d1"
     inkscape:zoom="19.778589"
     inkscape:cx="8.6204329"
     inkscape:cy="10.036105"
     inkscape:window-width="1920"
     inkscape:window-height="995"
     inkscape:window-x="0"
     inkscape:window-y="0"
     inkscape:window-maximized="1"
     inkscape:current-layer="svg1" />
  <path
     d="M 19.034314,1.4617604 H 10.102946 L 8.8576944,0.10112265 H 0.70840778 c -0.69032235,0 -0.60503165,-0.0595239 -0.60503165,0.75 0,0 0.001522,13.14321135 -4.3032e-4,13.53866135 -0.003329,0.674537 -0.05550293,0.571977 1.06603619,0.571977 h 17.829142 c 1.095319,0 1.104822,0.162224 1.104822,-0.592217 V 2.6495257 c 0,-1.11 0.03137,-1.1877653 -1.068632,-1.1877653 z m 0.06863,13.5000006 c -0.408906,7.79e-4 -17.2177877,-1.5e-4 -18.0000002,0 -1.04588782,-0.0089 -0.99101822,0.08006 -1.00000002,-0.5 -6.105e-4,-0.250229 4.3235e-4,-13.0000006 4.3235e-4,-13.0000006 0,0 17.50966387,-0.00266 18.95203587,0 1.147284,-0.013828 1.021283,0.1641344 1.047532,1.2010312 -0.002,2.6095702 -0.0018,11.0952634 4.3e-5,11.7950634 -0.03497,0.612962 0.04314,0.518909 -1,0.503906 z"
     id="path1"
     sodipodi:nodetypes="scccssssssscccsccccc"
     style="fill:#46b58e;fill-opacity:1;stroke:#333333;stroke-width:0.2;stroke-linecap:square;stroke-linejoin:miter;stroke-dasharray:none;stroke-opacity:1;paint-order:markers fill stroke" />
</svg>
