<?xml version="1.0" encoding="UTF-8" standalone="no"?>
<svg
   viewBox="0 0 14 18"
   version="1.1"
   id="svg1"
   sodipodi:docname="delete.svg"
   width="14"
   height="18"
   inkscape:version="1.3.1 (9b9bdc1480, 2023-11-25, custom)"
   xmlns:inkscape="http://www.inkscape.org/namespaces/inkscape"
   xmlns:sodipodi="http://sodipodi.sourceforge.net/DTD/sodipodi-0.dtd"
   xmlns="http://www.w3.org/2000/svg"
   xmlns:svg="http://www.w3.org/2000/svg">
  <defs
     id="defs1" />
  <sodipodi:namedview
     id="namedview1"
     pagecolor="#ffffff"
     bordercolor="#000000"
     borderopacity="0.25"
     inkscape:showpageshadow="2"
     inkscape:pageopacity="0.0"
     inkscape:pagecheckerboard="0"
     inkscape:deskcolor="#d1d1d1"
     inkscape:zoom="33.125"
     inkscape:cx="6.9886792"
     inkscape:cy="9.0113208"
     inkscape:window-width="1920"
     inkscape:window-height="995"
     inkscape:window-x="0"
     inkscape:window-y="0"
     inkscape:window-maximized="1"
     inkscape:current-layer="svg1" />
  <path
     d="M 9.12,7.47 7,9.59 4.87,7.47 3.46,8.88 5.59,11 3.47,13.12 4.88,14.53 7,12.41 9.12,14.53 10.53,13.12 8.41,11 10.53,8.88 9.12,7.47 M 10.5,1 9.5,0 h -5 l -1,1 H 0 V 3 H 14 V 1 H 10.5 M 1,16 a 2,2 0 0 0 2,2 h 8 a 2,2 0 0 0 2,-2 V 4 H 1 V 16 M 3,6 h 8 V 16 H 3 Z"
     id="path1" />
</svg>
